<svg xmlns="http://www.w3.org/2000/svg" xmlns:xlink="http://www.w3.org/1999/xlink" xmlns:inkscape="http://www.inkscape.org/namespaces/inkscape" version="1.1" width="412.1517" height="157.68741" viewBox="0 0 412.1517 157.68741">
<defs>
<clipPath id="clip_1">
<path transform="matrix(1,0,0,-1,-145.98995,491.7639)" d="M145.98996 334.07646H558.14169V491.76387H145.98996Z"/>
</clipPath>
<clipPath id="clip_2">
<path transform="matrix(1,0,0,-1,-145.98995,491.7639)" d="M0 7.920007H1440V817.92H0Z"/>
</clipPath>
<clipPath id="clip_3">
<path transform="matrix(.24,0,0,.24,-145.98995,-326.1561)" d="M0 0H6000V3375H0Z" clip-rule="evenodd"/>
</clipPath>
<clipPath id="clip_4">
<path transform="matrix(.24,0,0,.24,-145.98995,-326.1561)" d="M0 0H6000V3375H0Z" clip-rule="evenodd"/>
</clipPath>
<clipPath id="clip_5">
<path transform="matrix(.24,0,0,.24,-145.98995,-326.1561)" d="M0 0H6000V3375H0Z" clip-rule="evenodd"/>
</clipPath>
<clipPath id="clip_6">
<path transform="matrix(.24,0,0,.24,-145.98995,-167.7561)" d="M0 0H6000V4H0Z" clip-rule="evenodd"/>
</clipPath>
<clipPath id="clip_7">
<path transform="matrix(.24,0,0,.24,-145.98995,-167.7561)" d="M0 .71899417H6001V3.8439942H0Z" clip-rule="evenodd"/>
</clipPath>
<clipPath id="clip_8">
<path transform="matrix(.24,0,0,.24,-145.74994,350.88389)" d="M0 0H5999V5H0Z" clip-rule="evenodd"/>
</clipPath>
<clipPath id="clip_9">
<path transform="matrix(.24,0,0,.24,-145.74994,350.88389)" d="M.36949218 .9953613H6000V4.1203615H.36949218Z" clip-rule="evenodd"/>
</clipPath>
<clipPath id="clip_10">
<path transform="matrix(.24,0,0,.24,-145.98995,-326.1561)" d="M3000 0H6000V3375H3000Z" clip-rule="evenodd"/>
</clipPath>
<clipPath id="clip_11">
<path transform="matrix(.24,0,0,.24,-145.98995,-326.1561)" d="M2996.867 0H2999.992V3375H2996.867Z" clip-rule="evenodd"/>
</clipPath>
<clipPath id="clip_12">
<path transform="matrix(.24,0,0,.24,-145.98995,-326.1561)" d="M5522.807 3149.58H5633.5319V3157.0399H5522.807Z" clip-rule="evenodd"/>
</clipPath>
<clipPath id="clip_13">
<path transform="matrix(.24,0,0,.24,1179.29,429.6039)" d="M0 0H112V9H0Z" clip-rule="evenodd"/>
</clipPath>
<clipPath id="clip_14">
<path transform="matrix(.24,0,0,.24,-145.98995,-326.1561)" d="M0 0H6000V3375H0Z"/>
</clipPath>
<clipPath id="clip_15">
<path transform="matrix(.24,0,0,.24,-145.98995,-326.1561)" d="M0 0H6000V3375H0Z"/>
</clipPath>
<clipPath id="clip_16">
<path transform="matrix(.24,0,0,.24,-145.98995,-326.1561)" d="M5625.766 3128.4444H5662.676V3178.1754H5625.766Z"/>
</clipPath>
<clipPath id="clip_17">
<path transform="matrix(.24,0,0,.24,-145.98995,-326.1561)" d="M5625.823 3178.051V3128.5687L5662.5 3153.3099 5625.823 3178.051Z"/>
</clipPath>
<clipPath id="clip_18">
<path transform="matrix(.24,0,0,.24,1204.01,424.56388)" d="M0 0H38V51H0Z"/>
</clipPath>
<clipPath id="clip_19">
<path transform="matrix(.24,0,0,.24,-145.98995,-326.1561)" d="M0 0H6000V3375H0Z" clip-rule="evenodd"/>
</clipPath>
<clipPath id="clip_20">
<path transform="matrix(.24,0,0,.24,9.77005,-246.4761)" d="M0 0H847V95H0Z" clip-rule="evenodd"/>
</clipPath>
<path id="font_21_14" d="M.3809967 0H.070999149V.7630005H.36799623C.41466777 .7630005 .4541677 .7578328 .48649598 .74749758 .5188344 .7371623 .54466757 .72233077 .56399539 .7030029 .5966695 .6710002 .6130066 .6273346 .6130066 .5720062 .6130066 .5279999 .6025035 .49033103 .5814972 .45899964 .5605011 .42766825 .5313365 .40799967 .4940033 .3999939 .54467269 .3940023 .5835063 .37517295 .61050418 .34350587 .637502 .31183879 .651001 .27033488 .651001 .21899414 .651001 .18433635 .6449992 .15383911 .6329956 .12750244 .6210022 .10116577 .6056722 .07966614 .5870056 .06300354 .566335 .04499817 .5431671 .03149414 .51750186 .022491456 .49183656 .013498942 .46700035 .007502238 .44299317 .004501343 .41899619 .0015004476 .3983307 0 .3809967 0M.19799805 .6490021V.44099427H.3619995C.4019979 .44099427 .43266297 .4501597 .45399476 .4684906 .47532655 .48683167 .48599244 .51266989 .48599244 .54600527 .48599244 .56266787 .48349 .57683309 .4784851 .588501 .4734904 .6001689 .46632896 .6103363 .45700074 .6190033 .44499717 .6303355 .42949424 .63816836 .41049195 .64250186 .39149986 .6468353 .368337 .6490021 .34100343 .6490021H.19799805M.19799805 .33599855V.11399841H.3659973C.3840027 .11399841 .40533448 .11549886 .42999269 .118499759 .45466105 .12150065 .47566224 .13100179 .49299623 .14700318 .5023346 .15567017 .5099996 .16666667 .5159912 .17999268 .521993 .19332886 .5249939 .20966594 .5249939 .2290039 .5249939 .25500489 .5203247 .2751719 .5109863 .289505 .50165817 .3038381 .48965965 .31433616 .47499085 .32099916 .46033225 .32766215 .44483439 .3318278 .4284973 .3334961 .4121704 .3351644 .39700318 .33599855 .3829956 .33599855H.19799805Z"/>
<path id="font_21_75" d="M.5019989 .33299256 .6430054 0H.5059967L.38000489 .31100465H.19799805V0H.070999149V.7630005H.3860016C.43399558 .7630005 .47599284 .75516769 .5119934 .73950198 .54799398 .72383627 .5761617 .6996663 .5964966 .6669922 .6168315 .6343282 .6269989 .59199526 .6269989 .5399933 .6269989 .4893341 .6159973 .4465027 .59399417 .41149903 .57200118 .37649537 .54133608 .35032655 .5019989 .33299256M.19799805 .6490021V.42199708H.3690033C.41233827 .42199708 .44533793 .43182884 .46800233 .4514923 .49066673 .47116599 .5019989 .4993337 .5019989 .5359955 .5019989 .5726674 .49049888 .6006673 .46749879 .6199951 .4444987 .63933309 .41166688 .6490021 .3690033 .6490021H.19799805Z"/>
<path id="font_21_2" d="M.14100647 0H.009002686L.28199769 .7630005H.42199708L.6950073 0H.56300356L.5070038 .16700745H.19799805L.14100647 0M.352005 .6269989 .23500061 .27799989H.46899415L.352005 .6269989Z"/>
<path id="font_21_56" d="M.19799805 0H.070999149V.7630005H.2250061L.54800418 .17500305V.7630005H.673996V0H.5209961L.19799805 .58799746V0Z"/>
<path id="font_21_20" d="M.28900147 0H.070999149V.7630005H.2899933C.41799418 .7630005 .5159963 .7300008 .58399966 .66400149 .652003 .59800216 .68600466 .5036672 .68600466 .3809967 .68600466 .2589976 .652003 .16499837 .58399966 .09899902 .5159963 .032999677 .41766358 0 .28900147 0M.19799805 .6490021V.11399841H.28799439C.33999635 .11399841 .38633219 .12183126 .42700196 .13749695 .46767173 .15316265 .49983726 .18049622 .52349856 .21949768 .54717 .25849916 .55900576 .31233216 .55900576 .3809967 .55900576 .44500224 .54766848 .4966685 .5249939 .5359955 .5023295 .57533267 .47066245 .60399886 .42999269 .621994 .3893331 .6399994 .34200035 .6490021 .28799439 .6490021H.19799805Z"/>
<path id="font_21_1" d="M0 0Z"/>
<path id="font_21_61" d="M.40800477-.013000488C.3460032-.013000488 .29200236-.0023345948 .2460022 .018997193 .20000203 .04032898 .16200257 .06932577 .13200379 .10598755 .102005008 .1426595 .07967123 .18466187 .06500244 .23199463 .05033366 .2793274 .042999269 .32933045 .042999269 .38200379 .042999269 .43466697 .05033366 .48449708 .06500244 .53149417 .07967123 .5785014 .102005008 .6203359 .13200379 .6569977 .16200257 .6936696 .20000203 .72250369 .2460022 .74349978 .29200236 .76449587 .3460032 .7749939 .40800477 .7749939 .47000633 .7749939 .5238393 .76449587 .5695038 .74349978 .6151683 .72250369 .6531677 .6936696 .6835022 .6569977 .71383669 .6203359 .7363332 .5785014 .7509918 .53149417 .7656606 .48449708 .772995 .43466697 .772995 .38200379 .772995 .32933045 .7656606 .2793274 .7509918 .23199463 .7363332 .18466187 .71383669 .1426595 .6835022 .10598755 .6531677 .06932577 .6151683 .04032898 .5695038 .018997193 .5238393-.0023345948 .47000633-.013000488 .40800477-.013000488M.40800477 .100997928C.45866395 .100997928 .5013275 .11299642 .5359955 .13699341 .57066348 .16100057 .59699508 .19416809 .61499026 .23649597 .6329956 .27883403 .6419983 .32733665 .6419983 .38200379 .6419983 .43667094 .6329956 .4850006 .61499026 .5269928 .59699508 .5689952 .57066348 .6019948 .5359955 .6259918 .5013275 .64999899 .45866395 .66200259 .40800477 .66200259 .3579966 .66200259 .31549073 .64999899 .28048707 .6259918 .24549358 .6019948 .21899414 .5689952 .20098877 .5269928 .18299358 .4850006 .17399597 .43667094 .17399597 .38200379 .17399597 .32733665 .18299358 .27883403 .20098877 .23649597 .21899414 .19416809 .24549358 .16100057 .28048707 .13699341 .31549073 .11299642 .3579966 .100997928 .40800477 .100997928Z"/>
<path id="font_21_98" d="M.41999818 0H.27999879L.007003784 .7630005H.13900757L.3500061 .13699341 .56100466 .7630005H.69299319L.41999818 0Z"/>
<path id="font_21_24" d="M.576004 0H.070999149V.7630005H.576004V.6490021H.19799805V.43899537H.5339966V.32600404H.19799805V.11399841H.576004V0Z"/>
<path id="font_21_39" d="M.19799805 0H.070999149V.7630005H.19799805V0Z"/>
<path id="font_21_99" d="M.40299989 0H.2250061L.01600647 .7630005H.14900208L.31700135 .13000489 .47399903 .7630005H.625L.78300479 .1289978 .94999697 .7630005H1.0829926L.875 0H.69599917L.55000308 .5980072 .40299989 0Z"/>
<clipPath id="clip_22">
<path transform="matrix(.24,0,0,.24,9.77005,406.80387)" d="M0 0H841V95H0Z" clip-rule="evenodd"/>
</clipPath>
<path id="font_21_79" d="M.3650055-.013000488C.32833354-.013000488 .2916616-.0084991459 .25498963 .00050354006 .21832784 .009506226 .18466187 .024007163 .1539917 .044006349 .1233317 .06400553 .09766642 .09033712 .07699585 .1230011 .05633545 .15566509 .04333496 .19533284 .037994386 .2420044H.16700745C.17566426 .20467122 .19032796 .17533367 .21099854 .1539917 .23166912 .13265991 .25583396 .11766052 .28349305 .10899353 .31116233 .10032654 .33899943 .09599304 .3670044 .09599304 .41167198 .09599304 .44800315 .10549418 .47599793 .12449646 .50400289 .14349874 .5180054 .17233277 .5180054 .21099854 .5180054 .24099732 .50883486 .26416017 .49049378 .28048707 .47216288 .29682414 .44832865 .30949403 .4189911 .3184967 .3896637 .3274994 .3580017 .33566795 .32400514 .34300233 .29333497 .3496653 .2626648 .35716249 .23199463 .36549378 .20133464 .37383525 .17333476 .38550315 .147995 .40049745 .122665408 .41550193 .10233053 .43533326 .08699036 .45999146 .07166036 .48465983 .06399536 .5166626 .06399536 .55599978 .06399536 .6033325 .0754954 .643163 .09849548 .67549136 .12149557 .7078298 .15282695 .73249819 .19248963 .74949648 .23216248 .76649478 .2769979 .7749939 .32699586 .7749939 .3743286 .7749939 .41899619 .7668254 .46099855 .7504883 .5030009 .7341614 .5386658 .7088318 .56799319 .6744995 .59733077 .64016726 .6159973 .59600326 .6239929 .54200747H.49699403C.48633323 .5860036 .46516929 .6176656 .4335022 .6369934 .4018351 .65633139 .36566673 .66600039 .32499696 .66600039 .28433738 .66600039 .25183616 .6573334 .22749329 .6399994 .2031606 .6226654 .19099427 .5983327 .19099427 .56700137 .19099427 .54100039 .19949341 .52066549 .2164917 .5059967 .23350017 .4913279 .25567118 .47999574 .28300477 .47200013 .31033836 .46400453 .34000144 .4563395 .37199403 .44900514 .4039968 .44233195 .43599955 .43432618 .46800233 .4249878 .50000509 .41565959 .5293376 .40316264 .55599978 .38749696 .5826619 .37183128 .60416159 .35049949 .62049868 .3235016 .63683578 .2965037 .6450043 .26166789 .6450043 .21899414 .6450043 .14833577 .6206665 .09200541 .57199099 .05000305 .5233256 .008000691 .45433045-.013000488 .3650055-.013000488Z"/>
<path id="font_21_48" d="M.19799805 0H.070999149V.7630005H.19799805V.42100526L.4830017 .7630005H.6399994L.32499696 .39500428 .6519928 0H.4920044L.19799805 .35899354V0Z"/>
<path id="font_21_89" d="M.3639984-.013000488C.29400126-.013000488 .23699951-.0011698405 .19299317 .022491456 .148997 .046162923 .116495769 .07949829 .0954895 .12249756 .07449341 .16549683 .06399536 .21533203 .06399536 .27200318V.7630005H.19099427V.27200318C.19099427 .22133382 .20399475 .17999776 .22999573 .147995 .2559967 .1160024 .30066429 .1000061 .3639984 .1000061 .42733256 .1000061 .47183229 .1160024 .49749757 .147995 .52316287 .17999776 .5359955 .22133382 .5359955 .27200318V.7630005H.6629944V.27200318C.6629944 .21533203 .6526591 .16549683 .6319885 .12249756 .6113281 .07949829 .57899478 .046162923 .5349884 .022491456 .49099223-.0011698405 .43399558-.013000488 .3639984-.013000488Z"/>
<path id="font_21_85" d="M.3789978 0H.2519989V.6490021H.011993408V.7630005H.6210022V.6490021H.3789978V0Z"/>
<path id="font_21_104" d="M.16099549 0H.011001587L.26800538 .38200379 .013000488 .7630005H.16400147L.35499574 .46899415 .54600527 .7630005H.6970062L.44200135 .38200379 .6990051 0H.548996L.35499574 .28599549 .16099549 0Z"/>
<path id="font_21_50" d="M.5279999 0H.070999149V.7630005H.19799805V.11399841H.5279999V0Z"/>
<path id="font_21_55" d="M.19799805 0H.070999149V.7630005H.28599549L.45899964 .15400696 .6320038 .7630005H.8470001V0H.7200012V.67300418L.5209961 0H.39700318L.19799805 .66799929V0Z"/>
<clipPath id="clip_23">
<path transform="matrix(.24,0,0,.24,-145.98995,-326.1561)" d="M0 0H6000V3375H0Z"/>
</clipPath>
<clipPath id="clip_24">
<path transform="matrix(.24,0,0,.24,-145.98995,-326.1561)" d="M0 0H6000V3375H0Z"/>
</clipPath>
<clipPath id="clip_25">
<path transform="matrix(.24,0,0,.24,-145.98995,-326.1561)" d="M661.1632 1411.8557H1219.1738V1963.1432H661.1632Z"/>
</clipPath>
<clipPath id="clip_26">
<path transform="matrix(.24,0,0,.24,-145.98995,-326.1561)" d="M935.6665 1452.5208C840.8568 1453.969 753.0227 1513.563 717.8794 1601.3247L749.95736 1687.4451 718.6518 1773.0828C765.81527 1890.1467 900.1129 1951.7199 1020.16976 1908.5631 1083.867 1885.6572 1137.5957 1834.7526 1161.7326 1771.345L1129.6305 1687.4934 1161.5154 1601.1316C1133.8062 1533.8139 1075.2501 1480.7852 1004.86697 1461.3308 982.56448 1455.1759 958.86209 1452.1347 935.64236 1452.4967M921.90847 1413.2018C1142.2058 1400.6748 1292.9165 1635.3577 1179.4249 1827.9942 1079.4016 1997.773 830.9607 2008.3208 714.8864 1849.645 586.2368 1673.7354 706.72817 1425.4392 921.90847 1413.2018"/>
</clipPath>
<clipPath id="clip_27">
<path transform="matrix(.24,0,0,.24,12.650055,12.483887)" d="M0 0H559V553H0Z"/>
</clipPath>
<clipPath id="clip_28">
<path transform="matrix(.24,0,0,.24,-145.98995,-326.1561)" d="M0 0H6000V3375H0Z"/>
</clipPath>
<clipPath id="clip_29">
<path transform="matrix(.24,0,0,.24,-145.98995,-326.1561)" d="M0 0H6000V3375H0Z"/>
</clipPath>
<clipPath id="clip_30">
<path transform="matrix(.24,0,0,.24,-145.98995,-326.1561)" d="M804.58767 1521.6649H1073.5083V1842.1289H804.58767Z"/>
</clipPath>
<clipPath id="clip_31">
<path transform="matrix(.24,0,0,.24,-145.98995,-326.1561)" d="M1072.4985 1635.044 1017.8767 1618.3895C1018.1422 1606.1763 1022.7524 1576.1983 1005.92898 1573.3501L873.53817 1573.1812C867.9867 1574.3156 864.34207 1578.7326 862.6766 1583.9462 860.64907 1590.2459 860.1663 1613.9966 861.2525 1620.7307 861.6387 1623.1686 863.1593 1625.2444 865.18679 1626.6201L1042.786 1675.087C1058.5957 1679.5524 1071.171 1688.8209 1072.5468 1706.2719 1069.24 1756.2352 1091.3735 1835.0905 1017.99746 1840.4971 966.0548 1844.3348 909.309 1837.6489 856.8837 1840.3281 833.22958 1838.1076 807.1376 1815.5879 807.1376 1790.8234V1726.4503L861.10769 1743.2495C863.2076 1758.4076 855.02517 1781.6272 871.7279 1790.1234L1004.26358 1790.3889C1010.0564 1790.1476 1014.01486 1786.696 1015.9941 1781.4824 1019.39736 1772.5036 1019.4698 1744.9392 1018.45608 1734.8258 1018.094 1731.1812 1017.3457 1727.4882 1013.91836 1725.6055L835.8363 1676.5835C817.63717 1671.7079 808.3927 1662.6083 807.0652 1643.4436 805.78598 1624.8823 805.78598 1596.087 807.0652 1577.5016 809.09268 1547.7649 831.9744 1525.8486 861.61459 1523.9177 913.0744 1520.5628 968.10647 1526.5486 1019.9525 1523.9177 1043.6791 1523.8212 1072.4985 1549.5994 1072.4985 1573.5914V1635.044Z"/>
</clipPath>
<clipPath id="clip_32">
<path transform="matrix(.24,0,0,.24,47.210054,38.88388)" d="M0 0H269V322H0Z"/>
</clipPath>
<clipPath id="clip_33">
<path transform="matrix(.24,0,0,.24,-145.98995,-326.1561)" d="M0 0H6000V3375H0Z"/>
</clipPath>
<clipPath id="clip_34">
<path transform="matrix(.24,0,0,.24,-145.98995,-326.1561)" d="M0 0H6000V3375H0Z"/>
</clipPath>
<clipPath id="clip_35">
<path transform="matrix(.24,0,0,.24,-145.98995,-326.1561)" d="M3359.536 1297.375H4149.2995V2077.6234H3359.536Z"/>
</clipPath>
<clipPath id="clip_36">
<path transform="matrix(.24,0,0,.24,-145.98995,-326.1561)" d="M3748.046 1354.9291C3613.8599 1356.9788 3489.5465 1441.3234 3439.8074 1565.5343L3485.208 1687.4223 3440.9007 1808.627C3507.652 1974.3098 3697.7264 2061.4556 3867.645 2000.375 3957.797 1967.9558 4033.8404 1895.9094 4068.002 1806.1674L4022.5672 1687.4906 4067.6944 1565.261C4028.477 1469.9849 3945.6016 1394.9321 3845.9869 1367.3981 3814.4217 1358.6869 3780.875 1354.3826 3748.0118 1354.895M3728.574 1299.2802C4040.3653 1281.5504 4253.6696 1613.7019 4093.0423 1886.3442 3951.4774 2126.6358 3599.8538 2141.5643 3435.5716 1916.987 3253.4913 1668.0186 3424.025 1316.6 3728.574 1299.2802"/>
</clipPath>
<clipPath id="clip_37">
<path transform="matrix(.24,0,0,.24,660.17007,-14.876099)" d="M0 0H791V781H0Z"/>
</clipPath>
<clipPath id="clip_38">
<path transform="matrix(.24,0,0,.24,-145.98995,-326.1561)" d="M0 0H6000V3375H0Z"/>
</clipPath>
<clipPath id="clip_39">
<path transform="matrix(.24,0,0,.24,-145.98995,-326.1561)" d="M0 0H6000V3375H0Z"/>
</clipPath>
<clipPath id="clip_40">
<path transform="matrix(.24,0,0,.24,-145.98995,-326.1561)" d="M3562.5274 1452.7903H3943.1363V1906.3493H3562.5274Z"/>
</clipPath>
<clipPath id="clip_41">
<path transform="matrix(.24,0,0,.24,-145.98995,-326.1561)" d="M3941.707 1613.2578 3864.4 1589.6864C3864.7757 1572.4008 3871.3004 1529.9723 3847.4898 1525.9412L3660.1146 1525.702C3652.2574 1527.3076 3647.099 1533.5592 3644.742 1540.9381 3641.8724 1549.8543 3641.189 1583.469 3642.7264 1593.0001 3643.273 1596.4505 3645.425 1599.3883 3648.2947 1601.3355L3899.6544 1669.9317C3922.03 1676.2515 3939.8282 1689.3695 3941.7755 1714.0681 3937.0953 1784.7824 3968.4215 1896.3877 3864.5706 1904.0398 3791.0552 1909.4714 3710.7418 1900.0088 3636.5433 1903.8007 3603.065 1900.6578 3566.1365 1868.7853 3566.1365 1833.7356V1742.6271L3642.5216 1766.4035C3645.4935 1787.8568 3633.9127 1820.7202 3657.5526 1832.7449L3845.1329 1833.1207C3853.3316 1832.779 3858.934 1827.894 3861.7354 1820.5151 3866.552 1807.8071 3866.6546 1768.7948 3865.2198 1754.4812 3864.7073 1749.3228 3863.6483 1744.0961 3858.7974 1741.4314L3606.7545 1672.0496C3580.9967 1665.1489 3567.9129 1652.2702 3566.034 1625.146 3564.2235 1598.8759 3564.2235 1558.1213 3566.034 1531.817 3568.9036 1489.7301 3601.2886 1458.7116 3643.2388 1455.9786 3716.0709 1451.2302 3793.959 1459.7022 3867.3377 1455.9786 3900.9185 1455.8419 3941.707 1492.3264 3941.707 1526.2828V1613.2578Z"/>
</clipPath>
<clipPath id="clip_42">
<path transform="matrix(.24,0,0,.24,709.37008,22.323884)" d="M0 0H380V455H0Z"/>
</clipPath>
<clipPath id="clip_43">
<path transform="matrix(.24,0,0,.24,-145.98995,-326.1561)" d="M0 0H6000V3375H0Z" clip-rule="evenodd"/>
</clipPath>
<clipPath id="clip_44">
<path transform="matrix(.24,0,0,.24,149.21004,36.003908)" d="M0 0H1058V357H0Z" clip-rule="evenodd"/>
</clipPath>
<path id="font_45_46" d="M.6640625 0H.4921875L.30517579 .30078126 .24121094 .2548828V0H.08984375V.7138672H.24121094V.38720704L.30078126 .4711914 .49414063 .7138672H.6621094L.41308595 .39794923 .6640625 0Z"/>
<path id="font_45_50" d="M.73779299 .3581543C.73779299 .23990886 .7084961 .14902751 .64990237 .085510257 .5913086 .021993002 .5073242-.009765625 .39794923-.009765625 .28857423-.009765625 .20458985 .021993002 .1459961 .085510257 .087402347 .14902751 .05810547 .24023438 .05810547 .35913087 .05810547 .47802735 .08748373 .56882736 .14624024 .63153079 .20499675 .6942342 .28922526 .72558596 .39892579 .72558596 .5086263 .72558596 .5925293 .69399008 .65063479 .63079836 .70874026 .5676066 .73779299 .47672526 .73779299 .3581543M.21679688 .3581543C.21679688 .2783203 .2319336 .21820069 .26220704 .17779541 .29248048 .13739014 .33772788 .1171875 .39794923 .1171875 .51871749 .1171875 .57910159 .19750977 .57910159 .3581543 .57910159 .5191243 .51904299 .5996094 .39892579 .5996094 .33870445 .5996094 .29329429 .5793254 .2626953 .5387573 .23209636 .4981893 .21679688 .43798829 .21679688 .3581543Z"/>
<path id="font_45_56" d="M.67089846 .7138672V.25195313C.67089846 .19921875 .6590983 .1529948 .63549807 .11328125 .61189779 .07356771 .5777995 .04313151 .5332031 .021972657 .48860679 .00081380209 .4358724-.009765625 .375-.009765625 .28320313-.009765625 .21191406 .013753255 .16113281 .060791017 .11035156 .10782877 .08496094 .17220052 .08496094 .25390626V.7138672H.23583985V.27685548C.23583985 .22184246 .24690755 .18147786 .26904298 .15576172 .29117839 .13004558 .32779948 .1171875 .37890626 .1171875 .4283854 .1171875 .46427409 .13012696 .48657228 .15600586 .5088704 .18188477 .52001956 .22249349 .52001956 .27783204V.7138672H.67089846Z"/>
<path id="font_45_55" d="M.36523438 0H.21386719V.5878906H.020019532V.7138672H.55908206V.5878906H.36523438V0Z"/>
<path id="font_45_40" d="M.50097659 0H.08984375V.7138672H.50097659V.58984377H.24121094V.43359376H.48291017V.3095703H.24121094V.125H.50097659V0Z"/>
<path id="font_45_59" d="M.6669922 0H.49414063L.328125 .27001954 .16210938 0H0L.2368164 .36816407 .015136719 .7138672H.1821289L.3359375 .45703126 .4868164 .7138672H.64990237L.42578126 .35986329 .6669922 0Z"/>
<clipPath id="clip_46">
<path transform="matrix(.24,0,0,.24,853.37008,18.243897)" d="M0 0H1498V505H0Z" clip-rule="evenodd"/>
</clipPath>
<path id="font_47_46" d="M.6640625 0H.4921875L.30517579 .30078126 .24121094 .2548828V0H.08984375V.7138672H.24121094V.38720704L.30078126 .4711914 .49414063 .7138672H.6621094L.41308595 .39794923 .6640625 0Z"/>
<path id="font_47_50" d="M.73779299 .3581543C.73779299 .23990886 .7084961 .14902751 .64990237 .085510257 .5913086 .021993002 .5073242-.009765625 .39794923-.009765625 .28857423-.009765625 .20458985 .021993002 .1459961 .085510257 .087402347 .14902751 .05810547 .24023438 .05810547 .35913087 .05810547 .47802735 .08748373 .56882736 .14624024 .63153079 .20499675 .6942342 .28922526 .72558596 .39892579 .72558596 .5086263 .72558596 .5925293 .69399008 .65063479 .63079836 .70874026 .5676066 .73779299 .47672526 .73779299 .3581543M.21679688 .3581543C.21679688 .2783203 .2319336 .21820069 .26220704 .17779541 .29248048 .13739014 .33772788 .1171875 .39794923 .1171875 .51871749 .1171875 .57910159 .19750977 .57910159 .3581543 .57910159 .5191243 .51904299 .5996094 .39892579 .5996094 .33870445 .5996094 .29329429 .5793254 .2626953 .5387573 .23209636 .4981893 .21679688 .43798829 .21679688 .3581543Z"/>
<path id="font_47_56" d="M.67089846 .7138672V.25195313C.67089846 .19921875 .6590983 .1529948 .63549807 .11328125 .61189779 .07356771 .5777995 .04313151 .5332031 .021972657 .48860679 .00081380209 .4358724-.009765625 .375-.009765625 .28320313-.009765625 .21191406 .013753255 .16113281 .060791017 .11035156 .10782877 .08496094 .17220052 .08496094 .25390626V.7138672H.23583985V.27685548C.23583985 .22184246 .24690755 .18147786 .26904298 .15576172 .29117839 .13004558 .32779948 .1171875 .37890626 .1171875 .4283854 .1171875 .46427409 .13012696 .48657228 .15600586 .5088704 .18188477 .52001956 .22249349 .52001956 .27783204V.7138672H.67089846Z"/>
<path id="font_47_55" d="M.36523438 0H.21386719V.5878906H.020019532V.7138672H.55908206V.5878906H.36523438V0Z"/>
<path id="font_47_40" d="M.50097659 0H.08984375V.7138672H.50097659V.58984377H.24121094V.43359376H.48291017V.3095703H.24121094V.125H.50097659V0Z"/>
<path id="font_47_59" d="M.6669922 0H.49414063L.328125 .27001954 .16210938 0H0L.2368164 .36816407 .015136719 .7138672H.1821289L.3359375 .45703126 .4868164 .7138672H.64990237L.42578126 .35986329 .6669922 0Z"/>
</defs>
<g clip-path="url(#clip_1)">
<g clip-path="url(#clip_2)">
<g clip-path="url(#clip_3)">
</g>
<g clip-path="url(#clip_4)">
</g>
<g clip-path="url(#clip_5)">
<g opacity=".2">
<g clip-path="url(#clip_6)">
<g clip-path="url(#clip_7)">
<path transform="matrix(.75,0,0,.75,-145.98995,-167.58354)" d="M0 0H1957V1H0Z" fill="#0031FF"/>
</g>
</g>
</g>
<g opacity=".2">
<g clip-path="url(#clip_8)">
<g clip-path="url(#clip_9)">
<path transform="matrix(.75,0,0,.75,-145.66126,351.12278)" d="M0 0H1988V1H0Z" fill="#0031FF"/>
</g>
</g>
</g>
</g>
<g clip-path="url(#clip_10)">
<path transform="matrix(.75,0,0,.75,574.0101,-326.1561)" d="M0 0H960V1080H0Z" fill="#0031FF"/>
</g>
<g clip-path="url(#clip_11)">
<path transform="matrix(0,.75,-.75,0,574.0081,-346.15415)" d="M0 0H1133V1H0Z" fill="#0031FF"/>
</g>
<g clip-path="url(#clip_12)">
<g>
<g clip-path="url(#clip_13)">
<path transform="matrix(.046622877,0,0,.046622877,1179.4838,424.67057)" d="M0 0H719V256H0Z" fill="#0031FF"/>
</g>
</g>
</g>
<g clip-path="url(#clip_14)">
<g clip-path="url(#clip_15)">
<g clip-path="url(#clip_16)">
<g clip-path="url(#clip_17)">
<g>
<g clip-path="url(#clip_18)">
<path transform="matrix(.046622877,0,0,.046622877,1179.4838,424.6705)" d="M0 0H719V256H0Z" fill="#0031FF"/>
</g>
</g>
</g>
</g>
</g>
</g>
<g clip-path="url(#clip_19)">
<g>
<g clip-path="url(#clip_20)">
<use data-text="B" xlink:href="#font_21_14" transform="matrix(17.99639,0,0,-17.99639,10.000016,-228.26923)" fill="#0031FF"/>
<use data-text="R" xlink:href="#font_21_75" transform="matrix(17.99639,0,0,-17.99639,25.002953,-228.26923)" fill="#0031FF"/>
<use data-text="A" xlink:href="#font_21_2" transform="matrix(17.99639,0,0,-17.99639,39.7181,-228.26923)" fill="#0031FF"/>
<use data-text="N" xlink:href="#font_21_56" transform="matrix(17.99639,0,0,-17.99639,54.882925,-228.26923)" fill="#0031FF"/>
<use data-text="D" xlink:href="#font_21_20" transform="matrix(17.99639,0,0,-17.99639,70.80319,-228.26923)" fill="#0031FF"/>
<use data-text=" " xlink:href="#font_21_1" transform="matrix(17.99639,0,0,-17.99639,86.43568,-228.26923)" fill="#0031FF"/>
<use data-text="O" xlink:href="#font_21_61" transform="matrix(17.99639,0,0,-17.99639,93.830127,-228.26923)" fill="#0031FF"/>
<use data-text="V" xlink:href="#font_21_98" transform="matrix(17.99639,0,0,-17.99639,111.02748,-228.26923)" fill="#0031FF"/>
<use data-text="E" xlink:href="#font_21_24" transform="matrix(17.99639,0,0,-17.99639,126.12035,-228.26923)" fill="#0031FF"/>
<use data-text="R" xlink:href="#font_21_75" transform="matrix(17.99639,0,0,-17.99639,139.75629,-228.26923)" fill="#0031FF"/>
<use data-text="V" xlink:href="#font_21_98" transform="matrix(17.99639,0,0,-17.99639,154.47144,-228.26923)" fill="#0031FF"/>
<use data-text="I" xlink:href="#font_21_39" transform="matrix(17.99639,0,0,-17.99639,169.5643,-228.26923)" fill="#0031FF"/>
<use data-text="E" xlink:href="#font_21_24" transform="matrix(17.99639,0,0,-17.99639,176.94077,-228.26923)" fill="#0031FF"/>
<use data-text="W" xlink:href="#font_21_99" transform="matrix(17.99639,0,0,-17.99639,190.57669,-228.26923)" fill="#0031FF"/>
</g>
</g>
<g>
<g clip-path="url(#clip_22)">
<use data-text="S" xlink:href="#font_21_79" transform="matrix(17.99639,0,0,-17.99639,10.000016,425.00965)" fill="#0031FF"/>
<use data-text="K" xlink:href="#font_21_48" transform="matrix(17.99639,0,0,-17.99639,24.895039,425.00965)" fill="#0031FF"/>
<use data-text="O" xlink:href="#font_21_61" transform="matrix(17.99639,0,0,-17.99639,39.21447,425.00965)" fill="#0031FF"/>
<use data-text="U" xlink:href="#font_21_89" transform="matrix(17.99639,0,0,-17.99639,56.411825,425.00965)" fill="#0031FF"/>
<use data-text="T" xlink:href="#font_21_85" transform="matrix(17.99639,0,0,-17.99639,72.00833,425.00965)" fill="#0031FF"/>
<use data-text="E" xlink:href="#font_21_24" transform="matrix(17.99639,0,0,-17.99639,85.87809,425.00965)" fill="#0031FF"/>
<use data-text="X" xlink:href="#font_21_104" transform="matrix(17.99639,0,0,-17.99639,99.514019,425.00965)" fill="#0031FF"/>
<use data-text=" " xlink:href="#font_21_1" transform="matrix(17.99639,0,0,-17.99639,114.786769,425.00965)" fill="#0031FF"/>
<use data-text="L" xlink:href="#font_21_50" transform="matrix(17.99639,0,0,-17.99639,122.18121,425.00965)" fill="#0031FF"/>
<use data-text="I" xlink:href="#font_21_39" transform="matrix(17.99639,0,0,-17.99639,134.39617,425.00965)" fill="#0031FF"/>
<use data-text="M" xlink:href="#font_21_55" transform="matrix(17.99639,0,0,-17.99639,141.77263,425.00965)" fill="#0031FF"/>
<use data-text="I" xlink:href="#font_21_39" transform="matrix(17.99639,0,0,-17.99639,160.80464,425.00965)" fill="#0031FF"/>
<use data-text="T" xlink:href="#font_21_85" transform="matrix(17.99639,0,0,-17.99639,168.1811,425.00965)" fill="#0031FF"/>
<use data-text="E" xlink:href="#font_21_24" transform="matrix(17.99639,0,0,-17.99639,182.05088,425.00965)" fill="#0031FF"/>
<use data-text="D" xlink:href="#font_21_20" transform="matrix(17.99639,0,0,-17.99639,195.6868,425.00965)" fill="#0031FF"/>
</g>
</g>
</g>
<g clip-path="url(#clip_23)">
<g clip-path="url(#clip_24)">
<g clip-path="url(#clip_25)">
<g clip-path="url(#clip_26)">
<g>
<g clip-path="url(#clip_27)">
<path transform="matrix(.53784146,0,0,.53784146,10.000021,10.000039)" d="M0 0H259V256H0Z" fill="#0031FF"/>
</g>
</g>
</g>
</g>
</g>
</g>
<g clip-path="url(#clip_28)">
<g clip-path="url(#clip_29)">
<g clip-path="url(#clip_30)">
<g clip-path="url(#clip_31)">
<g>
<g clip-path="url(#clip_32)">
<path transform="matrix(.53784146,0,0,.53784146,10.000019,10.000034)" d="M0 0H259V256H0Z" fill="#0031FF"/>
</g>
</g>
</g>
</g>
</g>
</g>
<g clip-path="url(#clip_33)">
<g clip-path="url(#clip_34)">
<g clip-path="url(#clip_35)">
<g clip-path="url(#clip_36)">
<g>
<g clip-path="url(#clip_37)">
<path transform="matrix(.7612179,0,0,.7612179,656.49258,-18.592202)" d="M0 0H259V256H0Z" fill="#0031FF"/>
</g>
</g>
</g>
</g>
</g>
</g>
<g clip-path="url(#clip_38)">
<g clip-path="url(#clip_39)">
<g clip-path="url(#clip_40)">
<g clip-path="url(#clip_41)">
<g>
<g clip-path="url(#clip_42)">
<path transform="matrix(.7612179,0,0,.7612179,656.4926,-18.59222)" d="M0 0H259V256H0Z" fill="#0031FF"/>
</g>
</g>
</g>
</g>
</g>
</g>
<g clip-path="url(#clip_43)">
<g>
<g clip-path="url(#clip_44)">
<use data-text="K" xlink:href="#font_45_46" transform="matrix(62.874109,0,0,-62.874109,149.27976,103.19183)" fill="#0031FF"/>
<use data-text="O" xlink:href="#font_45_50" transform="matrix(62.874109,0,0,-62.874109,191.0308,103.19183)" fill="#0031FF"/>
<use data-text="U" xlink:href="#font_45_56" transform="matrix(62.874109,0,0,-62.874109,241.07068,103.19183)" fill="#0031FF"/>
<use data-text="T" xlink:href="#font_45_55" transform="matrix(62.874109,0,0,-62.874109,288.5932,103.19183)" fill="#0031FF"/>
<use data-text="E" xlink:href="#font_45_40" transform="matrix(62.874109,0,0,-62.874109,325.0026,103.19183)" fill="#0031FF"/>
<use data-text="X" xlink:href="#font_45_59" transform="matrix(62.874109,0,0,-62.874109,360.21473,103.19183)" fill="#0031FF"/>
</g>
</g>
<g>
<g clip-path="url(#clip_46)">
<use data-text="K" xlink:href="#font_47_46" transform="matrix(88.987,0,0,-88.987,853.618,113.30405)" fill="#0031FF"/>
<use data-text="O" xlink:href="#font_47_50" transform="matrix(88.987,0,0,-88.987,912.7091,113.30405)" fill="#0031FF"/>
<use data-text="U" xlink:href="#font_47_56" transform="matrix(88.987,0,0,-88.987,983.53158,113.30405)" fill="#0031FF"/>
<use data-text="T" xlink:href="#font_47_55" transform="matrix(88.987,0,0,-88.987,1050.7911,113.30405)" fill="#0031FF"/>
<use data-text="E" xlink:href="#font_47_40" transform="matrix(88.987,0,0,-88.987,1102.322,113.30405)" fill="#0031FF"/>
<use data-text="X" xlink:href="#font_47_59" transform="matrix(88.987,0,0,-88.987,1152.1585,113.30405)" fill="#0031FF"/>
</g>
</g>
</g>
<path transform="matrix(1,0,0,-1,-145.98995,491.7639)" d="M719.25-12.079993H720V837.92H719.25Z" fill-opacity="0"/>
<path transform="matrix(1,0,0,-1,-145.98995,491.7639)" d="M720 7.920007H1440V817.92H720Z" fill-opacity="0"/>
<path transform="matrix(1,0,0,-1,-145.98995,491.7639)" d="M0 658.5975H1467.7776V659.3475H0Z" fill-opacity="0"/>
<path transform="matrix(1,0,0,-1,-145.98995,491.7639)" d="M.32867814 139.89113H1491.3287V140.64113H.32867814Z" fill-opacity="0"/>
</g>
</g>
</svg>
